<?xml version="1.0" encoding="utf-8" standalone="no"?>
<!DOCTYPE svg PUBLIC "-//W3C//DTD SVG 1.1//EN"
  "http://www.w3.org/Graphics/SVG/1.1/DTD/svg11.dtd">
<!-- Created with matplotlib (http://matplotlib.org/) -->
<svg height="432pt" version="1.1" viewBox="0 0 576 432" width="576pt" xmlns="http://www.w3.org/2000/svg" xmlns:xlink="http://www.w3.org/1999/xlink">
 <defs>
  <style type="text/css">
*{stroke-linecap:butt;stroke-linejoin:round;stroke-miterlimit:100000;}
  </style>
 </defs>
 <g id="figure_1">
  <g id="patch_1">
   <path d="M 0 432 
L 576 432 
L 576 0 
L 0 0 
z
" style="fill:#ffffff;"/>
  </g>
  <g id="axes_1">
   <g id="patch_2">
    <path d="M 72 388.8 
L 518.4 388.8 
L 518.4 43.2 
L 72 43.2 
z
" style="fill:#ffffff;"/>
   </g>
   <g id="line2d_1">
    <path clip-path="url(#p4cc4a809fa)" d="M 72 388.8 
L 73.7856 311.808 
L 75.5712 388.8 
L 77.3568 388.8 
L 79.1424 324.672 
L 80.928 388.8 
L 82.7136 342.912 
L 84.4992 375.552 
L 86.2848 321.792 
L 88.0704 362.688 
L 89.856 383.424 
L 91.6416 388.8 
L 93.4272 388.608 
L 95.2128 388.8 
L 96.9984 388.8 
L 98.784 336.96 
L 100.5696 388.8 
L 107.712 388.8 
L 109.4976 319.872 
L 111.2832 388.8 
L 113.0688 350.976 
L 114.8544 388.8 
L 116.64 347.328 
L 118.4256 388.8 
L 120.2112 386.688 
L 121.9968 380.544 
L 123.7824 352.32 
L 125.568 388.8 
L 127.3536 367.872 
L 129.1392 388.8 
L 130.9248 369.408 
L 132.7104 345.792 
L 134.496 388.8 
L 136.2816 276.288 
L 138.0672 372.096 
L 139.8528 388.8 
L 141.6384 327.936 
L 143.424 387.072 
L 145.2096 305.664 
L 146.9952 216 
L 148.7808 388.8 
L 150.5664 367.296 
L 152.352 372.096 
L 154.1376 388.8 
L 155.9232 388.8 
L 157.7088 343.296 
L 159.4944 388.8 
L 161.28 353.664 
L 163.0656 388.8 
L 164.8512 388.8 
L 166.6368 333.888 
L 168.4224 362.88 
L 170.208 388.8 
L 171.9936 371.904 
L 173.7792 369.984 
L 175.5648 388.8 
L 177.3504 388.8 
L 179.136 376.32 
L 180.9216 388.8 
L 182.7072 382.464 
L 184.4928 388.8 
L 186.2784 323.904 
L 188.064 388.8 
L 189.8496 306.624 
L 191.6352 388.8 
L 193.4208 321.792 
L 195.2064 388.8 
L 196.992 362.112 
L 198.7776 388.8 
L 200.5632 365.376 
L 202.3488 336.384 
L 204.1344 388.8 
L 205.92 338.496 
L 207.7056 388.8 
L 209.4912 46.656 
L 211.2768 388.8 
L 213.0624 355.776 
L 214.848 374.4 
L 216.6336 345.216 
L 218.4192 388.8 
L 220.2048 353.088 
L 221.9904 388.8 
L 223.776 361.152 
L 225.5616 378.432 
L 227.3472 376.704 
L 229.1328 388.8 
L 230.9184 338.304 
L 232.704 268.032 
L 234.4896 388.8 
L 236.2752 349.824 
L 238.0608 355.008 
L 239.8464 388.8 
L 241.632 336.384 
L 243.4176 388.8 
L 245.2032 350.016 
L 246.9888 339.264 
L 248.7744 331.968 
L 250.56 388.8 
L 252.3456 388.8 
L 254.1312 367.68 
L 255.9168 388.8 
L 257.7024 369.024 
L 259.488 355.2 
L 261.2736 366.72 
L 263.0592 379.008 
L 264.8448 281.856 
L 266.6304 388.8 
L 268.416 382.464 
L 270.2016 339.456 
L 271.9872 341.376 
L 273.7728 303.936 
L 275.5584 388.8 
L 277.344 356.928 
L 279.1296 388.8 
L 280.9152 345.216 
L 282.7008 305.664 
L 284.4864 300.288 
L 286.272 388.8 
L 288.0576 388.8 
L 289.8432 364.416 
L 291.6288 388.8 
L 296.9856 388.8 
L 298.7712 335.424 
L 300.5568 388.8 
L 302.3424 368.64 
L 304.128 388.8 
L 305.9136 341.568 
L 307.6992 359.232 
L 309.4848 387.648 
L 311.2704 371.904 
L 313.056 388.8 
L 314.8416 345.024 
L 316.6272 383.04 
L 318.4128 378.624 
L 320.1984 388.8 
L 321.984 380.16 
L 323.7696 388.8 
L 325.5552 334.272 
L 327.3408 355.2 
L 329.1264 388.8 
L 330.912 335.424 
L 332.6976 326.592 
L 334.4832 388.8 
L 336.2688 297.216 
L 338.0544 356.352 
L 339.84 285.888 
L 341.6256 382.464 
L 343.4112 352.128 
L 345.1968 318.528 
L 346.9824 388.8 
L 348.768 347.712 
L 350.5536 388.8 
L 352.3392 344.64 
L 354.1248 388.8 
L 355.9104 344.448 
L 357.696 362.88 
L 359.4816 387.648 
L 361.2672 388.8 
L 363.0528 388.8 
L 364.8384 323.328 
L 366.624 388.8 
L 368.4096 308.736 
L 370.1952 382.656 
L 371.9808 388.8 
L 373.7664 347.904 
L 375.552 388.8 
L 377.3376 351.744 
L 379.1232 385.728 
L 380.9088 377.472 
L 382.6944 370.752 
L 384.48 388.8 
L 386.2656 388.8 
L 388.0512 323.712 
L 389.8368 388.8 
L 391.6224 369.024 
L 393.408 340.992 
L 395.1936 388.8 
L 396.9792 355.008 
L 398.7648 388.8 
L 402.336 388.8 
L 404.1216 381.696 
L 405.9072 364.992 
L 407.6928 384.384 
L 409.4784 340.8 
L 411.264 268.608 
L 413.0496 351.168 
L 414.8352 388.8 
L 416.6208 367.104 
L 418.4064 313.536 
L 420.192 382.464 
L 421.9776 327.552 
L 423.7632 342.912 
L 425.5488 388.8 
L 427.3344 339.264 
L 429.12 327.36 
L 430.9056 388.8 
L 432.6912 372.864 
L 434.4768 324.288 
L 436.2624 345.024 
L 438.048 330.24 
L 439.8336 287.232 
L 441.6192 343.296 
L 443.4048 388.8 
L 445.1904 337.152 
L 446.976 388.8 
L 448.7616 323.904 
L 450.5472 335.04 
L 452.3328 338.688 
L 454.1184 388.8 
L 455.904 299.328 
L 457.6896 340.608 
L 459.4752 388.8 
L 461.2608 364.032 
L 463.0464 342.144 
L 464.832 342.912 
L 466.6176 388.8 
L 468.4032 349.632 
L 470.1888 388.8 
L 471.9744 320.256 
L 473.76 383.232 
L 475.5456 340.992 
L 477.3312 388.8 
L 480.9024 388.8 
L 482.688 325.248 
L 484.4736 388.8 
L 486.2592 316.8 
L 488.0448 388.8 
L 488.0448 388.8 
" style="fill:none;stroke:#0000ff;stroke-linecap:square;"/>
   </g>
   <g id="patch_3">
    <path d="M 72 388.8 
L 72 43.2 
" style="fill:none;stroke:#000000;stroke-linecap:square;stroke-linejoin:miter;"/>
   </g>
   <g id="patch_4">
    <path d="M 72 43.2 
L 518.4 43.2 
" style="fill:none;stroke:#000000;stroke-linecap:square;stroke-linejoin:miter;"/>
   </g>
   <g id="patch_5">
    <path d="M 72 388.8 
L 518.4 388.8 
" style="fill:none;stroke:#000000;stroke-linecap:square;stroke-linejoin:miter;"/>
   </g>
   <g id="patch_6">
    <path d="M 518.4 388.8 
L 518.4 43.2 
" style="fill:none;stroke:#000000;stroke-linecap:square;stroke-linejoin:miter;"/>
   </g>
   <g id="matplotlib.axis_1">
    <g id="xtick_1">
     <g id="line2d_2">
      <defs>
       <path d="M 0 0 
L 0 -4 
" id="m2bf229a88c" style="stroke:#000000;stroke-width:0.5;"/>
      </defs>
      <g>
       <use style="stroke:#000000;stroke-width:0.5;" x="72.0" xlink:href="#m2bf229a88c" y="388.8"/>
      </g>
     </g>
     <g id="line2d_3">
      <defs>
       <path d="M 0 0 
L 0 4 
" id="m57ee0a329d" style="stroke:#000000;stroke-width:0.5;"/>
      </defs>
      <g>
       <use style="stroke:#000000;stroke-width:0.5;" x="72.0" xlink:href="#m57ee0a329d" y="43.2"/>
      </g>
     </g>
     <g id="text_1">
      <!-- 0 -->
      <defs>
       <path d="M 31.78125 66.40625 
Q 24.171875 66.40625 20.328125 58.90625 
Q 16.5 51.421875 16.5 36.375 
Q 16.5 21.390625 20.328125 13.890625 
Q 24.171875 6.390625 31.78125 6.390625 
Q 39.453125 6.390625 43.28125 13.890625 
Q 47.125 21.390625 47.125 36.375 
Q 47.125 51.421875 43.28125 58.90625 
Q 39.453125 66.40625 31.78125 66.40625 
M 31.78125 74.21875 
Q 44.046875 74.21875 50.515625 64.515625 
Q 56.984375 54.828125 56.984375 36.375 
Q 56.984375 17.96875 50.515625 8.265625 
Q 44.046875 -1.421875 31.78125 -1.421875 
Q 19.53125 -1.421875 13.0625 8.265625 
Q 6.59375 17.96875 6.59375 36.375 
Q 6.59375 54.828125 13.0625 64.515625 
Q 19.53125 74.21875 31.78125 74.21875 
" id="BitstreamVeraSans-Roman-30"/>
      </defs>
      <g transform="translate(68.1825 401.918125)scale(0.12 -0.12)">
       <use xlink:href="#BitstreamVeraSans-Roman-30"/>
      </g>
     </g>
    </g>
    <g id="xtick_2">
     <g id="line2d_4">
      <g>
       <use style="stroke:#000000;stroke-width:0.5;" x="161.28" xlink:href="#m2bf229a88c" y="388.8"/>
      </g>
     </g>
     <g id="line2d_5">
      <g>
       <use style="stroke:#000000;stroke-width:0.5;" x="161.28" xlink:href="#m57ee0a329d" y="43.2"/>
      </g>
     </g>
     <g id="text_2">
      <!-- 50 -->
      <defs>
       <path d="M 10.796875 72.90625 
L 49.515625 72.90625 
L 49.515625 64.59375 
L 19.828125 64.59375 
L 19.828125 46.734375 
Q 21.96875 47.46875 24.109375 47.828125 
Q 26.265625 48.1875 28.421875 48.1875 
Q 40.625 48.1875 47.75 41.5 
Q 54.890625 34.8125 54.890625 23.390625 
Q 54.890625 11.625 47.5625 5.09375 
Q 40.234375 -1.421875 26.90625 -1.421875 
Q 22.3125 -1.421875 17.546875 -0.640625 
Q 12.796875 0.140625 7.71875 1.703125 
L 7.71875 11.625 
Q 12.109375 9.234375 16.796875 8.0625 
Q 21.484375 6.890625 26.703125 6.890625 
Q 35.15625 6.890625 40.078125 11.328125 
Q 45.015625 15.765625 45.015625 23.390625 
Q 45.015625 31 40.078125 35.4375 
Q 35.15625 39.890625 26.703125 39.890625 
Q 22.75 39.890625 18.8125 39.015625 
Q 14.890625 38.140625 10.796875 36.28125 
z
" id="BitstreamVeraSans-Roman-35"/>
      </defs>
      <g transform="translate(153.645 401.918125)scale(0.12 -0.12)">
       <use xlink:href="#BitstreamVeraSans-Roman-35"/>
       <use x="63.623046875" xlink:href="#BitstreamVeraSans-Roman-30"/>
      </g>
     </g>
    </g>
    <g id="xtick_3">
     <g id="line2d_6">
      <g>
       <use style="stroke:#000000;stroke-width:0.5;" x="250.56" xlink:href="#m2bf229a88c" y="388.8"/>
      </g>
     </g>
     <g id="line2d_7">
      <g>
       <use style="stroke:#000000;stroke-width:0.5;" x="250.56" xlink:href="#m57ee0a329d" y="43.2"/>
      </g>
     </g>
     <g id="text_3">
      <!-- 100 -->
      <defs>
       <path d="M 12.40625 8.296875 
L 28.515625 8.296875 
L 28.515625 63.921875 
L 10.984375 60.40625 
L 10.984375 69.390625 
L 28.421875 72.90625 
L 38.28125 72.90625 
L 38.28125 8.296875 
L 54.390625 8.296875 
L 54.390625 0 
L 12.40625 0 
z
" id="BitstreamVeraSans-Roman-31"/>
      </defs>
      <g transform="translate(239.1075 401.918125)scale(0.12 -0.12)">
       <use xlink:href="#BitstreamVeraSans-Roman-31"/>
       <use x="63.623046875" xlink:href="#BitstreamVeraSans-Roman-30"/>
       <use x="127.24609375" xlink:href="#BitstreamVeraSans-Roman-30"/>
      </g>
     </g>
    </g>
    <g id="xtick_4">
     <g id="line2d_8">
      <g>
       <use style="stroke:#000000;stroke-width:0.5;" x="339.84" xlink:href="#m2bf229a88c" y="388.8"/>
      </g>
     </g>
     <g id="line2d_9">
      <g>
       <use style="stroke:#000000;stroke-width:0.5;" x="339.84" xlink:href="#m57ee0a329d" y="43.2"/>
      </g>
     </g>
     <g id="text_4">
      <!-- 150 -->
      <g transform="translate(328.3875 401.918125)scale(0.12 -0.12)">
       <use xlink:href="#BitstreamVeraSans-Roman-31"/>
       <use x="63.623046875" xlink:href="#BitstreamVeraSans-Roman-35"/>
       <use x="127.24609375" xlink:href="#BitstreamVeraSans-Roman-30"/>
      </g>
     </g>
    </g>
    <g id="xtick_5">
     <g id="line2d_10">
      <g>
       <use style="stroke:#000000;stroke-width:0.5;" x="429.12" xlink:href="#m2bf229a88c" y="388.8"/>
      </g>
     </g>
     <g id="line2d_11">
      <g>
       <use style="stroke:#000000;stroke-width:0.5;" x="429.12" xlink:href="#m57ee0a329d" y="43.2"/>
      </g>
     </g>
     <g id="text_5">
      <!-- 200 -->
      <defs>
       <path d="M 19.1875 8.296875 
L 53.609375 8.296875 
L 53.609375 0 
L 7.328125 0 
L 7.328125 8.296875 
Q 12.9375 14.109375 22.625 23.890625 
Q 32.328125 33.6875 34.8125 36.53125 
Q 39.546875 41.84375 41.421875 45.53125 
Q 43.3125 49.21875 43.3125 52.78125 
Q 43.3125 58.59375 39.234375 62.25 
Q 35.15625 65.921875 28.609375 65.921875 
Q 23.96875 65.921875 18.8125 64.3125 
Q 13.671875 62.703125 7.8125 59.421875 
L 7.8125 69.390625 
Q 13.765625 71.78125 18.9375 73 
Q 24.125 74.21875 28.421875 74.21875 
Q 39.75 74.21875 46.484375 68.546875 
Q 53.21875 62.890625 53.21875 53.421875 
Q 53.21875 48.921875 51.53125 44.890625 
Q 49.859375 40.875 45.40625 35.40625 
Q 44.1875 33.984375 37.640625 27.21875 
Q 31.109375 20.453125 19.1875 8.296875 
" id="BitstreamVeraSans-Roman-32"/>
      </defs>
      <g transform="translate(417.6675 401.918125)scale(0.12 -0.12)">
       <use xlink:href="#BitstreamVeraSans-Roman-32"/>
       <use x="63.623046875" xlink:href="#BitstreamVeraSans-Roman-30"/>
       <use x="127.24609375" xlink:href="#BitstreamVeraSans-Roman-30"/>
      </g>
     </g>
    </g>
    <g id="xtick_6">
     <g id="line2d_12">
      <g>
       <use style="stroke:#000000;stroke-width:0.5;" x="518.4" xlink:href="#m2bf229a88c" y="388.8"/>
      </g>
     </g>
     <g id="line2d_13">
      <g>
       <use style="stroke:#000000;stroke-width:0.5;" x="518.4" xlink:href="#m57ee0a329d" y="43.2"/>
      </g>
     </g>
     <g id="text_6">
      <!-- 250 -->
      <g transform="translate(506.9475 401.918125)scale(0.12 -0.12)">
       <use xlink:href="#BitstreamVeraSans-Roman-32"/>
       <use x="63.623046875" xlink:href="#BitstreamVeraSans-Roman-35"/>
       <use x="127.24609375" xlink:href="#BitstreamVeraSans-Roman-30"/>
      </g>
     </g>
    </g>
    <g id="text_7">
     <!-- Kundennummer -->
     <defs>
      <path d="M 56.203125 29.59375 
L 56.203125 25.203125 
L 14.890625 25.203125 
Q 15.484375 15.921875 20.484375 11.0625 
Q 25.484375 6.203125 34.421875 6.203125 
Q 39.59375 6.203125 44.453125 7.46875 
Q 49.3125 8.734375 54.109375 11.28125 
L 54.109375 2.78125 
Q 49.265625 0.734375 44.1875 -0.34375 
Q 39.109375 -1.421875 33.890625 -1.421875 
Q 20.796875 -1.421875 13.15625 6.1875 
Q 5.515625 13.8125 5.515625 26.8125 
Q 5.515625 40.234375 12.765625 48.109375 
Q 20.015625 56 32.328125 56 
Q 43.359375 56 49.78125 48.890625 
Q 56.203125 41.796875 56.203125 29.59375 
M 47.21875 32.234375 
Q 47.125 39.59375 43.09375 43.984375 
Q 39.0625 48.390625 32.421875 48.390625 
Q 24.90625 48.390625 20.390625 44.140625 
Q 15.875 39.890625 15.1875 32.171875 
z
" id="BitstreamVeraSans-Roman-65"/>
      <path d="M 52 44.1875 
Q 55.375 50.25 60.0625 53.125 
Q 64.75 56 71.09375 56 
Q 79.640625 56 84.28125 50.015625 
Q 88.921875 44.046875 88.921875 33.015625 
L 88.921875 0 
L 79.890625 0 
L 79.890625 32.71875 
Q 79.890625 40.578125 77.09375 44.375 
Q 74.3125 48.1875 68.609375 48.1875 
Q 61.625 48.1875 57.5625 43.546875 
Q 53.515625 38.921875 53.515625 30.90625 
L 53.515625 0 
L 44.484375 0 
L 44.484375 32.71875 
Q 44.484375 40.625 41.703125 44.40625 
Q 38.921875 48.1875 33.109375 48.1875 
Q 26.21875 48.1875 22.15625 43.53125 
Q 18.109375 38.875 18.109375 30.90625 
L 18.109375 0 
L 9.078125 0 
L 9.078125 54.6875 
L 18.109375 54.6875 
L 18.109375 46.1875 
Q 21.1875 51.21875 25.484375 53.609375 
Q 29.78125 56 35.6875 56 
Q 41.65625 56 45.828125 52.96875 
Q 50 49.953125 52 44.1875 
" id="BitstreamVeraSans-Roman-6d"/>
      <path d="M 45.40625 46.390625 
L 45.40625 75.984375 
L 54.390625 75.984375 
L 54.390625 0 
L 45.40625 0 
L 45.40625 8.203125 
Q 42.578125 3.328125 38.25 0.953125 
Q 33.9375 -1.421875 27.875 -1.421875 
Q 17.96875 -1.421875 11.734375 6.484375 
Q 5.515625 14.40625 5.515625 27.296875 
Q 5.515625 40.1875 11.734375 48.09375 
Q 17.96875 56 27.875 56 
Q 33.9375 56 38.25 53.625 
Q 42.578125 51.265625 45.40625 46.390625 
M 14.796875 27.296875 
Q 14.796875 17.390625 18.875 11.75 
Q 22.953125 6.109375 30.078125 6.109375 
Q 37.203125 6.109375 41.296875 11.75 
Q 45.40625 17.390625 45.40625 27.296875 
Q 45.40625 37.203125 41.296875 42.84375 
Q 37.203125 48.484375 30.078125 48.484375 
Q 22.953125 48.484375 18.875 42.84375 
Q 14.796875 37.203125 14.796875 27.296875 
" id="BitstreamVeraSans-Roman-64"/>
      <path d="M 9.8125 72.90625 
L 19.671875 72.90625 
L 19.671875 42.09375 
L 52.390625 72.90625 
L 65.09375 72.90625 
L 28.90625 38.921875 
L 67.671875 0 
L 54.6875 0 
L 19.671875 35.109375 
L 19.671875 0 
L 9.8125 0 
z
" id="BitstreamVeraSans-Roman-4b"/>
      <path d="M 41.109375 46.296875 
Q 39.59375 47.171875 37.8125 47.578125 
Q 36.03125 48 33.890625 48 
Q 26.265625 48 22.1875 43.046875 
Q 18.109375 38.09375 18.109375 28.8125 
L 18.109375 0 
L 9.078125 0 
L 9.078125 54.6875 
L 18.109375 54.6875 
L 18.109375 46.1875 
Q 20.953125 51.171875 25.484375 53.578125 
Q 30.03125 56 36.53125 56 
Q 37.453125 56 38.578125 55.875 
Q 39.703125 55.765625 41.0625 55.515625 
z
" id="BitstreamVeraSans-Roman-72"/>
      <path d="M 54.890625 33.015625 
L 54.890625 0 
L 45.90625 0 
L 45.90625 32.71875 
Q 45.90625 40.484375 42.875 44.328125 
Q 39.84375 48.1875 33.796875 48.1875 
Q 26.515625 48.1875 22.3125 43.546875 
Q 18.109375 38.921875 18.109375 30.90625 
L 18.109375 0 
L 9.078125 0 
L 9.078125 54.6875 
L 18.109375 54.6875 
L 18.109375 46.1875 
Q 21.34375 51.125 25.703125 53.5625 
Q 30.078125 56 35.796875 56 
Q 45.21875 56 50.046875 50.171875 
Q 54.890625 44.34375 54.890625 33.015625 
" id="BitstreamVeraSans-Roman-6e"/>
      <path d="M 8.5 21.578125 
L 8.5 54.6875 
L 17.484375 54.6875 
L 17.484375 21.921875 
Q 17.484375 14.15625 20.5 10.265625 
Q 23.53125 6.390625 29.59375 6.390625 
Q 36.859375 6.390625 41.078125 11.03125 
Q 45.3125 15.671875 45.3125 23.6875 
L 45.3125 54.6875 
L 54.296875 54.6875 
L 54.296875 0 
L 45.3125 0 
L 45.3125 8.40625 
Q 42.046875 3.421875 37.71875 1 
Q 33.40625 -1.421875 27.6875 -1.421875 
Q 18.265625 -1.421875 13.375 4.4375 
Q 8.5 10.296875 8.5 21.578125 
" id="BitstreamVeraSans-Roman-75"/>
     </defs>
     <g transform="translate(246.909375 418.531875)scale(0.12 -0.12)">
      <use xlink:href="#BitstreamVeraSans-Roman-4b"/>
      <use x="65.498046875" xlink:href="#BitstreamVeraSans-Roman-75"/>
      <use x="128.876953125" xlink:href="#BitstreamVeraSans-Roman-6e"/>
      <use x="192.255859375" xlink:href="#BitstreamVeraSans-Roman-64"/>
      <use x="255.732421875" xlink:href="#BitstreamVeraSans-Roman-65"/>
      <use x="317.255859375" xlink:href="#BitstreamVeraSans-Roman-6e"/>
      <use x="380.634765625" xlink:href="#BitstreamVeraSans-Roman-6e"/>
      <use x="444.013671875" xlink:href="#BitstreamVeraSans-Roman-75"/>
      <use x="507.392578125" xlink:href="#BitstreamVeraSans-Roman-6d"/>
      <use x="604.8046875" xlink:href="#BitstreamVeraSans-Roman-6d"/>
      <use x="702.216796875" xlink:href="#BitstreamVeraSans-Roman-65"/>
      <use x="763.740234375" xlink:href="#BitstreamVeraSans-Roman-72"/>
     </g>
    </g>
   </g>
   <g id="matplotlib.axis_2">
    <g id="ytick_1">
     <g id="line2d_14">
      <defs>
       <path d="M 0 0 
L 4 0 
" id="m52c0246fd2" style="stroke:#000000;stroke-width:0.5;"/>
      </defs>
      <g>
       <use style="stroke:#000000;stroke-width:0.5;" x="72.0" xlink:href="#m52c0246fd2" y="388.8"/>
      </g>
     </g>
     <g id="line2d_15">
      <defs>
       <path d="M 0 0 
L -4 0 
" id="m508e2a905a" style="stroke:#000000;stroke-width:0.5;"/>
      </defs>
      <g>
       <use style="stroke:#000000;stroke-width:0.5;" x="518.4" xlink:href="#m508e2a905a" y="388.8"/>
      </g>
     </g>
     <g id="text_8">
      <!-- 0 -->
      <g transform="translate(60.365 392.11125)scale(0.12 -0.12)">
       <use xlink:href="#BitstreamVeraSans-Roman-30"/>
      </g>
     </g>
    </g>
    <g id="ytick_2">
     <g id="line2d_16">
      <g>
       <use style="stroke:#000000;stroke-width:0.5;" x="72.0" xlink:href="#m52c0246fd2" y="350.4"/>
      </g>
     </g>
     <g id="line2d_17">
      <g>
       <use style="stroke:#000000;stroke-width:0.5;" x="518.4" xlink:href="#m508e2a905a" y="350.4"/>
      </g>
     </g>
     <g id="text_9">
      <!-- 2 -->
      <g transform="translate(60.365 353.71125)scale(0.12 -0.12)">
       <use xlink:href="#BitstreamVeraSans-Roman-32"/>
      </g>
     </g>
    </g>
    <g id="ytick_3">
     <g id="line2d_18">
      <g>
       <use style="stroke:#000000;stroke-width:0.5;" x="72.0" xlink:href="#m52c0246fd2" y="312.0"/>
      </g>
     </g>
     <g id="line2d_19">
      <g>
       <use style="stroke:#000000;stroke-width:0.5;" x="518.4" xlink:href="#m508e2a905a" y="312.0"/>
      </g>
     </g>
     <g id="text_10">
      <!-- 4 -->
      <defs>
       <path d="M 37.796875 64.3125 
L 12.890625 25.390625 
L 37.796875 25.390625 
z
M 35.203125 72.90625 
L 47.609375 72.90625 
L 47.609375 25.390625 
L 58.015625 25.390625 
L 58.015625 17.1875 
L 47.609375 17.1875 
L 47.609375 0 
L 37.796875 0 
L 37.796875 17.1875 
L 4.890625 17.1875 
L 4.890625 26.703125 
z
" id="BitstreamVeraSans-Roman-34"/>
      </defs>
      <g transform="translate(60.365 315.31125)scale(0.12 -0.12)">
       <use xlink:href="#BitstreamVeraSans-Roman-34"/>
      </g>
     </g>
    </g>
    <g id="ytick_4">
     <g id="line2d_20">
      <g>
       <use style="stroke:#000000;stroke-width:0.5;" x="72.0" xlink:href="#m52c0246fd2" y="273.6"/>
      </g>
     </g>
     <g id="line2d_21">
      <g>
       <use style="stroke:#000000;stroke-width:0.5;" x="518.4" xlink:href="#m508e2a905a" y="273.6"/>
      </g>
     </g>
     <g id="text_11">
      <!-- 6 -->
      <defs>
       <path d="M 33.015625 40.375 
Q 26.375 40.375 22.484375 35.828125 
Q 18.609375 31.296875 18.609375 23.390625 
Q 18.609375 15.53125 22.484375 10.953125 
Q 26.375 6.390625 33.015625 6.390625 
Q 39.65625 6.390625 43.53125 10.953125 
Q 47.40625 15.53125 47.40625 23.390625 
Q 47.40625 31.296875 43.53125 35.828125 
Q 39.65625 40.375 33.015625 40.375 
M 52.59375 71.296875 
L 52.59375 62.3125 
Q 48.875 64.0625 45.09375 64.984375 
Q 41.3125 65.921875 37.59375 65.921875 
Q 27.828125 65.921875 22.671875 59.328125 
Q 17.53125 52.734375 16.796875 39.40625 
Q 19.671875 43.65625 24.015625 45.921875 
Q 28.375 48.1875 33.59375 48.1875 
Q 44.578125 48.1875 50.953125 41.515625 
Q 57.328125 34.859375 57.328125 23.390625 
Q 57.328125 12.15625 50.6875 5.359375 
Q 44.046875 -1.421875 33.015625 -1.421875 
Q 20.359375 -1.421875 13.671875 8.265625 
Q 6.984375 17.96875 6.984375 36.375 
Q 6.984375 53.65625 15.1875 63.9375 
Q 23.390625 74.21875 37.203125 74.21875 
Q 40.921875 74.21875 44.703125 73.484375 
Q 48.484375 72.75 52.59375 71.296875 
" id="BitstreamVeraSans-Roman-36"/>
      </defs>
      <g transform="translate(60.365 276.91125)scale(0.12 -0.12)">
       <use xlink:href="#BitstreamVeraSans-Roman-36"/>
      </g>
     </g>
    </g>
    <g id="ytick_5">
     <g id="line2d_22">
      <g>
       <use style="stroke:#000000;stroke-width:0.5;" x="72.0" xlink:href="#m52c0246fd2" y="235.2"/>
      </g>
     </g>
     <g id="line2d_23">
      <g>
       <use style="stroke:#000000;stroke-width:0.5;" x="518.4" xlink:href="#m508e2a905a" y="235.2"/>
      </g>
     </g>
     <g id="text_12">
      <!-- 8 -->
      <defs>
       <path d="M 31.78125 34.625 
Q 24.75 34.625 20.71875 30.859375 
Q 16.703125 27.09375 16.703125 20.515625 
Q 16.703125 13.921875 20.71875 10.15625 
Q 24.75 6.390625 31.78125 6.390625 
Q 38.8125 6.390625 42.859375 10.171875 
Q 46.921875 13.96875 46.921875 20.515625 
Q 46.921875 27.09375 42.890625 30.859375 
Q 38.875 34.625 31.78125 34.625 
M 21.921875 38.8125 
Q 15.578125 40.375 12.03125 44.71875 
Q 8.5 49.078125 8.5 55.328125 
Q 8.5 64.0625 14.71875 69.140625 
Q 20.953125 74.21875 31.78125 74.21875 
Q 42.671875 74.21875 48.875 69.140625 
Q 55.078125 64.0625 55.078125 55.328125 
Q 55.078125 49.078125 51.53125 44.71875 
Q 48 40.375 41.703125 38.8125 
Q 48.828125 37.15625 52.796875 32.3125 
Q 56.78125 27.484375 56.78125 20.515625 
Q 56.78125 9.90625 50.3125 4.234375 
Q 43.84375 -1.421875 31.78125 -1.421875 
Q 19.734375 -1.421875 13.25 4.234375 
Q 6.78125 9.90625 6.78125 20.515625 
Q 6.78125 27.484375 10.78125 32.3125 
Q 14.796875 37.15625 21.921875 38.8125 
M 18.3125 54.390625 
Q 18.3125 48.734375 21.84375 45.5625 
Q 25.390625 42.390625 31.78125 42.390625 
Q 38.140625 42.390625 41.71875 45.5625 
Q 45.3125 48.734375 45.3125 54.390625 
Q 45.3125 60.0625 41.71875 63.234375 
Q 38.140625 66.40625 31.78125 66.40625 
Q 25.390625 66.40625 21.84375 63.234375 
Q 18.3125 60.0625 18.3125 54.390625 
" id="BitstreamVeraSans-Roman-38"/>
      </defs>
      <g transform="translate(60.365 238.51125)scale(0.12 -0.12)">
       <use xlink:href="#BitstreamVeraSans-Roman-38"/>
      </g>
     </g>
    </g>
    <g id="ytick_6">
     <g id="line2d_24">
      <g>
       <use style="stroke:#000000;stroke-width:0.5;" x="72.0" xlink:href="#m52c0246fd2" y="196.8"/>
      </g>
     </g>
     <g id="line2d_25">
      <g>
       <use style="stroke:#000000;stroke-width:0.5;" x="518.4" xlink:href="#m508e2a905a" y="196.8"/>
      </g>
     </g>
     <g id="text_13">
      <!-- 10 -->
      <g transform="translate(52.73 200.11125)scale(0.12 -0.12)">
       <use xlink:href="#BitstreamVeraSans-Roman-31"/>
       <use x="63.623046875" xlink:href="#BitstreamVeraSans-Roman-30"/>
      </g>
     </g>
    </g>
    <g id="ytick_7">
     <g id="line2d_26">
      <g>
       <use style="stroke:#000000;stroke-width:0.5;" x="72.0" xlink:href="#m52c0246fd2" y="158.4"/>
      </g>
     </g>
     <g id="line2d_27">
      <g>
       <use style="stroke:#000000;stroke-width:0.5;" x="518.4" xlink:href="#m508e2a905a" y="158.4"/>
      </g>
     </g>
     <g id="text_14">
      <!-- 12 -->
      <g transform="translate(52.73 161.71125)scale(0.12 -0.12)">
       <use xlink:href="#BitstreamVeraSans-Roman-31"/>
       <use x="63.623046875" xlink:href="#BitstreamVeraSans-Roman-32"/>
      </g>
     </g>
    </g>
    <g id="ytick_8">
     <g id="line2d_28">
      <g>
       <use style="stroke:#000000;stroke-width:0.5;" x="72.0" xlink:href="#m52c0246fd2" y="120.0"/>
      </g>
     </g>
     <g id="line2d_29">
      <g>
       <use style="stroke:#000000;stroke-width:0.5;" x="518.4" xlink:href="#m508e2a905a" y="120.0"/>
      </g>
     </g>
     <g id="text_15">
      <!-- 14 -->
      <g transform="translate(52.73 123.31125)scale(0.12 -0.12)">
       <use xlink:href="#BitstreamVeraSans-Roman-31"/>
       <use x="63.623046875" xlink:href="#BitstreamVeraSans-Roman-34"/>
      </g>
     </g>
    </g>
    <g id="ytick_9">
     <g id="line2d_30">
      <g>
       <use style="stroke:#000000;stroke-width:0.5;" x="72.0" xlink:href="#m52c0246fd2" y="81.6"/>
      </g>
     </g>
     <g id="line2d_31">
      <g>
       <use style="stroke:#000000;stroke-width:0.5;" x="518.4" xlink:href="#m508e2a905a" y="81.6"/>
      </g>
     </g>
     <g id="text_16">
      <!-- 16 -->
      <g transform="translate(52.73 84.91125)scale(0.12 -0.12)">
       <use xlink:href="#BitstreamVeraSans-Roman-31"/>
       <use x="63.623046875" xlink:href="#BitstreamVeraSans-Roman-36"/>
      </g>
     </g>
    </g>
    <g id="ytick_10">
     <g id="line2d_32">
      <g>
       <use style="stroke:#000000;stroke-width:0.5;" x="72.0" xlink:href="#m52c0246fd2" y="43.2"/>
      </g>
     </g>
     <g id="line2d_33">
      <g>
       <use style="stroke:#000000;stroke-width:0.5;" x="518.4" xlink:href="#m508e2a905a" y="43.2"/>
      </g>
     </g>
     <g id="text_17">
      <!-- 18 -->
      <g transform="translate(52.73 46.51125)scale(0.12 -0.12)">
       <use xlink:href="#BitstreamVeraSans-Roman-31"/>
       <use x="63.623046875" xlink:href="#BitstreamVeraSans-Roman-38"/>
      </g>
     </g>
    </g>
    <g id="text_18">
     <!-- Wartezeit [min] -->
     <defs>
      <path d="M 34.28125 27.484375 
Q 23.390625 27.484375 19.1875 25 
Q 14.984375 22.515625 14.984375 16.5 
Q 14.984375 11.71875 18.140625 8.90625 
Q 21.296875 6.109375 26.703125 6.109375 
Q 34.1875 6.109375 38.703125 11.40625 
Q 43.21875 16.703125 43.21875 25.484375 
L 43.21875 27.484375 
z
M 52.203125 31.203125 
L 52.203125 0 
L 43.21875 0 
L 43.21875 8.296875 
Q 40.140625 3.328125 35.546875 0.953125 
Q 30.953125 -1.421875 24.3125 -1.421875 
Q 15.921875 -1.421875 10.953125 3.296875 
Q 6 8.015625 6 15.921875 
Q 6 25.140625 12.171875 29.828125 
Q 18.359375 34.515625 30.609375 34.515625 
L 43.21875 34.515625 
L 43.21875 35.40625 
Q 43.21875 41.609375 39.140625 45 
Q 35.0625 48.390625 27.6875 48.390625 
Q 23 48.390625 18.546875 47.265625 
Q 14.109375 46.140625 10.015625 43.890625 
L 10.015625 52.203125 
Q 14.9375 54.109375 19.578125 55.046875 
Q 24.21875 56 28.609375 56 
Q 40.484375 56 46.34375 49.84375 
Q 52.203125 43.703125 52.203125 31.203125 
" id="BitstreamVeraSans-Roman-61"/>
      <path d="M 9.421875 54.6875 
L 18.40625 54.6875 
L 18.40625 0 
L 9.421875 0 
z
M 9.421875 75.984375 
L 18.40625 75.984375 
L 18.40625 64.59375 
L 9.421875 64.59375 
z
" id="BitstreamVeraSans-Roman-69"/>
      <path d="M 8.59375 75.984375 
L 29.296875 75.984375 
L 29.296875 69 
L 17.578125 69 
L 17.578125 -6.203125 
L 29.296875 -6.203125 
L 29.296875 -13.1875 
L 8.59375 -13.1875 
z
" id="BitstreamVeraSans-Roman-5b"/>
      <path d="M 5.515625 54.6875 
L 48.1875 54.6875 
L 48.1875 46.484375 
L 14.40625 7.171875 
L 48.1875 7.171875 
L 48.1875 0 
L 4.296875 0 
L 4.296875 8.203125 
L 38.09375 47.515625 
L 5.515625 47.515625 
z
" id="BitstreamVeraSans-Roman-7a"/>
      <path d="M 18.3125 70.21875 
L 18.3125 54.6875 
L 36.8125 54.6875 
L 36.8125 47.703125 
L 18.3125 47.703125 
L 18.3125 18.015625 
Q 18.3125 11.328125 20.140625 9.421875 
Q 21.96875 7.515625 27.59375 7.515625 
L 36.8125 7.515625 
L 36.8125 0 
L 27.59375 0 
Q 17.1875 0 13.234375 3.875 
Q 9.28125 7.765625 9.28125 18.015625 
L 9.28125 47.703125 
L 2.6875 47.703125 
L 2.6875 54.6875 
L 9.28125 54.6875 
L 9.28125 70.21875 
z
" id="BitstreamVeraSans-Roman-74"/>
      <path d="M 30.421875 75.984375 
L 30.421875 -13.1875 
L 9.71875 -13.1875 
L 9.71875 -6.203125 
L 21.390625 -6.203125 
L 21.390625 69 
L 9.71875 69 
L 9.71875 75.984375 
z
" id="BitstreamVeraSans-Roman-5d"/>
      <path d="M 3.328125 72.90625 
L 13.28125 72.90625 
L 28.609375 11.28125 
L 43.890625 72.90625 
L 54.984375 72.90625 
L 70.3125 11.28125 
L 85.59375 72.90625 
L 95.609375 72.90625 
L 77.296875 0 
L 64.890625 0 
L 49.515625 63.28125 
L 33.984375 0 
L 21.578125 0 
z
" id="BitstreamVeraSans-Roman-57"/>
      <path id="BitstreamVeraSans-Roman-20"/>
     </defs>
     <g transform="translate(45.234375 262.876875)rotate(-90.0)scale(0.12 -0.12)">
      <use xlink:href="#BitstreamVeraSans-Roman-57"/>
      <use x="98.783203125" xlink:href="#BitstreamVeraSans-Roman-61"/>
      <use x="160.0625" xlink:href="#BitstreamVeraSans-Roman-72"/>
      <use x="201.17578125" xlink:href="#BitstreamVeraSans-Roman-74"/>
      <use x="240.384765625" xlink:href="#BitstreamVeraSans-Roman-65"/>
      <use x="301.908203125" xlink:href="#BitstreamVeraSans-Roman-7a"/>
      <use x="354.3984375" xlink:href="#BitstreamVeraSans-Roman-65"/>
      <use x="415.921875" xlink:href="#BitstreamVeraSans-Roman-69"/>
      <use x="443.705078125" xlink:href="#BitstreamVeraSans-Roman-74"/>
      <use x="482.9140625" xlink:href="#BitstreamVeraSans-Roman-20"/>
      <use x="514.701171875" xlink:href="#BitstreamVeraSans-Roman-5b"/>
      <use x="553.71484375" xlink:href="#BitstreamVeraSans-Roman-6d"/>
      <use x="651.126953125" xlink:href="#BitstreamVeraSans-Roman-69"/>
      <use x="678.91015625" xlink:href="#BitstreamVeraSans-Roman-6e"/>
      <use x="742.2890625" xlink:href="#BitstreamVeraSans-Roman-5d"/>
     </g>
    </g>
   </g>
  </g>
 </g>
 <defs>
  <clipPath id="p4cc4a809fa">
   <rect height="345.6" width="446.4" x="72.0" y="43.2"/>
  </clipPath>
 </defs>
</svg>
